<?xml version="1.0" encoding="UTF-8"?>
<!DOCTYPE svg PUBLIC "-//W3C//DTD SVG 1.1//EN" "http://www.w3.org/Graphics/SVG/1.1/DTD/svg11.dtd">
<!-- Creator: CorelDRAW X6 -->
<svg xmlns="http://www.w3.org/2000/svg" xml:space="preserve" width="24px" height="24px" version="1.1" shape-rendering="geometricPrecision" text-rendering="geometricPrecision" image-rendering="optimizeQuality" fill-rule="evenodd" clip-rule="evenodd"
viewBox="0 0 24 24"
 xmlns:xlink="http://www.w3.org/1999/xlink">
 <g id="Слой_x0020_1">
  <metadata id="CorelCorpID_0Corel-Layer"/>
  <path fill="black" d="M20 18l0 2 -4 0 0 -2 4 0m0 -4l0 2 -10 0 0 -2 10 0m-6 4l0 2 -4 0 0 -2 4 0m-6 -4l0 2 -4 0 0 -2 4 0m0 4l0 2 -4 0 0 -2 4 0m14 3l0 -12 0 0 0 0 -4 3 -1 0 0 0 0 -3 0 0 0 0 -4 3 -1 0 0 0 0 -3 0 0 0 0 -5 3 0 0 0 0 -1 -9 -1 -1 -1 0 -1 1 -1 6 0 4 0 8 1 1 18 0 1 -1z"/>
 </g>
</svg>
