<?xml version="1.0" encoding="UTF-8"?>
<!DOCTYPE svg PUBLIC "-//W3C//DTD SVG 1.1//EN" "http://www.w3.org/Graphics/SVG/1.1/DTD/svg11.dtd">
<!-- Creator: CorelDRAW X6 -->
<svg xmlns="http://www.w3.org/2000/svg" xml:space="preserve" width="24px" height="24px" version="1.1" shape-rendering="geometricPrecision" text-rendering="geometricPrecision" image-rendering="optimizeQuality" fill-rule="evenodd" clip-rule="evenodd"
viewBox="0 0 24 24"
 xmlns:xlink="http://www.w3.org/1999/xlink">
 <g id="Слой_x0020_1">
  <metadata id="CorelCorpID_0Corel-Layer"/>
  <path fill="#2B2A29" d="M2 8l4 0c0,-3 0,-3 -2,-3 -3,0 -2,0 -2,3z"/>
  <path fill="#2B2A29" d="M12 0l-1 0c-1,0 -1,0 -1,0 -1,1 -1,1 -1,1 -1,0 -2,0 -3,0 0,0 -1,1 -1,1 -1,0 -1,0 -2,1 0,0 0,1 1,1 1,1 1,0 2,0 0,0 1,1 2,0 0,0 1,0 1,0 1,0 1,0 1,0 1,0 1,1 2,0 2,0 3,-1 2,-3 0,0 -1,-1 -2,-1 0,0 0,0 0,0l0 0c0,0 0,0 0,0 0,0 0,0 0,0z"/>
  <polygon fill="#2B2A29" points="17,18 19,18 19,19 17,20 "/>
  <polygon fill="#2B2A29" points="12,19 12,18 14,18 14,19 12,20 "/>
  <polygon fill="#2B2A29" points="8,18 8,18 10,18 10,19 8,19 "/>
  <polygon fill="#2B2A29" points="16,15 19,15 19,16 17,16 17,16 "/>
  <polygon fill="#2B2A29" points="12,15 14,15 14,16 12,16 "/>
  <polygon fill="#2B2A29" points="8,15 10,15 10,16 8,16 7,15 "/>
  <path fill="#2B2A29" d="M1 21c0,0 0,0 0,1 0,1 0,1 1,1l16 -1c1,0 2,0 3,1 1,0 1,0 2,-1 0,-1 -1,-1 -1,-1 0,-2 0,-4 0,-6 0,-1 0,-6 0,-7 -1,0 -1,0 -1,0 0,0 0,1 0,1 -1,1 -3,2 -4,3 -1,-1 0,-3 -1,-4 0,0 0,1 -1,1 -1,1 -3,2 -4,3 0,-1 0,-3 0,-4 0,0 0,0 -1,1l-3 3c-1,0 -1,0 -1,0l0 -4 -5 0 0 13z"/>
 </g>
</svg>
