<?xml version="1.0" encoding="UTF-8"?>
<!DOCTYPE svg PUBLIC "-//W3C//DTD SVG 1.1//EN" "http://www.w3.org/Graphics/SVG/1.1/DTD/svg11.dtd">
<!-- Creator: CorelDRAW X6 -->
<svg xmlns="http://www.w3.org/2000/svg" xml:space="preserve" width="128px" height="128px" version="1.1" shape-rendering="geometricPrecision" text-rendering="geometricPrecision" image-rendering="optimizeQuality" fill-rule="evenodd" clip-rule="evenodd"
viewBox="0 0 128 128"
 xmlns:xlink="http://www.w3.org/1999/xlink">
 <g id="Слой_x0020_1">
  <metadata id="CorelCorpID_0Corel-Layer"/>
  <g id="_298283536">
   <g>
    <path fill="black" d="M112 98l0 12 -23 0 0 -12 23 0 0 0zm0 -23l0 12 -58 0 0 -12 58 0 0 0zm-35 23l0 12 -23 0 0 -12 23 0 0 0zm-35 -23l0 12 -23 0 0 -12 23 0 0 0zm0 23l0 12 -23 0 0 -12 23 0 0 0zm81 17l0 -71c0,-1 0,-1 -1,-1 0,-1 -1,-1 -2,0l-23 18c0,1 -1,1 -2,1 0,-1 -1,-1 -1,-2l0 -16c0,-1 0,-1 -1,-1 0,-1 -1,-1 -1,0l-24 18c0,1 -1,1 -2,1 0,-1 0,-1 0,-2l0 -16c0,-1 -1,-1 -1,-1 -1,-1 -2,-1 -2,0l-24 19c0,0 -1,0 -2,0 0,0 -1,-1 -1,-2l-5 -49c0,-3 -2,-5 -5,-5l-7 0c-3,0 -6,2 -6,5l-3 35c0,0 -2,23 -2,23l0 46c0,4 2,6 6,6l103 0c4,0 6,-2 6,-6l0 0z"/>
   </g>
  </g>
 </g>
</svg>
