<?xml version="1.0" encoding="UTF-8"?>
<!DOCTYPE svg PUBLIC "-//W3C//DTD SVG 1.1//EN" "http://www.w3.org/Graphics/SVG/1.1/DTD/svg11.dtd">
<!-- Creator: CorelDRAW X6 -->
<svg xmlns="http://www.w3.org/2000/svg" xml:space="preserve" width="4096px" height="4096px" version="1.1" shape-rendering="geometricPrecision" text-rendering="geometricPrecision" image-rendering="optimizeQuality" fill-rule="evenodd" clip-rule="evenodd"
viewBox="0 0 4096 4096"
 xmlns:xlink="http://www.w3.org/1999/xlink">
 <g id="Слой_x0020_1">
  <metadata id="CorelCorpID_0Corel-Layer"/>
  <g id="_490468352">
   <path fill="#2B2A29" d="M256 1280l768 0c0,-415 31,-384 -384,-384 -416,0 -384,-32 -384,384zm1754 -1280l-149 0c-58,21 -98,4 -217,61 -59,28 -133,83 -156,122 -65,-21 -105,-45 -184,-52 -190,-19 -409,63 -464,260 -397,-55 -432,349 -103,376 112,9 179,-30 239,-76 106,45 143,84 304,76 125,-6 201,-52 280,-106 66,31 99,62 183,84 75,19 162,28 245,20 329,-35 565,-302 377,-570 -61,-88 -183,-154 -294,-178l-54 -14c-2,0 -4,-2 -7,-3zm806 3072l384 0 0 256 -384 0 0 -256zm-768 200l0 -200 384 0 0 256 -384 0 0 -56zm-768 -120l0 -80 384 0 0 256 -384 0 0 -176zm1536 -592l384 0 0 256 -384 0 0 -152 0 -104zm-768 0l384 0 0 256 -384 0 0 -256zm-768 0l384 0 0 256 -384 0 0 -216 0 -40zm-1024 1024c-124,1 -130,33 -128,152 1,118 74,104 176,104l3360 0c101,1 175,13 176,-104 1,-119 -3,-152 -128,-152 0,-365 2,-731 0,-1096 -1,-136 15,-1018 -14,-1073 -40,-10 -39,-11 -70,13l-707 540c-34,27 -71,52 -102,77 -12,-72 -3,-236 -3,-317 0,-98 39,-392 -80,-304l-813 621c-12,-74 -2,-233 -3,-317 0,-76 8,-247 -7,-306 -49,-24 -50,-16 -128,44l-435 332c-37,29 -71,57 -109,83l-217 164 0 -637 -768 0 0 2176z"/>
  </g>
 </g>
</svg>
