<?xml version="1.0" encoding="UTF-8"?>
<!DOCTYPE svg PUBLIC "-//W3C//DTD SVG 1.1//EN" "http://www.w3.org/Graphics/SVG/1.1/DTD/svg11.dtd">
<!-- Creator: CorelDRAW X6 -->
<svg xmlns="http://www.w3.org/2000/svg" xml:space="preserve" width="4096px" height="4096px" version="1.1" shape-rendering="geometricPrecision" text-rendering="geometricPrecision" image-rendering="optimizeQuality" fill-rule="evenodd" clip-rule="evenodd"
viewBox="0 0 4096 4096"
 xmlns:xlink="http://www.w3.org/1999/xlink">
 <g id="Слой_x0020_1">
  <metadata id="CorelCorpID_0Corel-Layer"/>
  <path fill="black" d="M3387 3052l0 335 -670 0 0 -335 670 0 0 0zm0 -669l0 334 -1674 0 0 -334 1674 0 0 0zm-1004 669l0 335 -670 0 0 -335 670 0 0 0zm-1005 -669l0 334 -669 0 0 -334 669 0 0 0zm0 669l0 335 -669 0 0 -335 669 0 0 0zm2344 503l0 -2072c0,-20 -11,-37 -28,-45 -18,-9 -38,-7 -54,6l-674 539c-15,12 -35,14 -53,6 -17,-9 -28,-26 -28,-45l0 -461c0,-20 -11,-37 -28,-45 -18,-9 -38,-7 -54,6l-674 539c-15,12 -35,14 -53,6 -17,-9 -28,-26 -28,-45l0 -461c0,-20 -11,-37 -28,-45 -18,-9 -38,-7 -54,6l-683 546c-15,12 -33,15 -51,7 -17,-7 -28,-22 -30,-41l-143 -1431c-9,-86 -81,-151 -167,-151l-199 0c-86,0 -158,65 -167,151l-100 1006c0,1 -52,672 -52,673l0 1351c0,92 75,167 167,167l3014 0c92,0 167,-75 167,-167l0 0z"/>
 </g>
</svg>
