<?xml version="1.0" encoding="UTF-8"?>
<!DOCTYPE svg PUBLIC "-//W3C//DTD SVG 1.1//EN" "http://www.w3.org/Graphics/SVG/1.1/DTD/svg11.dtd">
<!-- Creator: CorelDRAW X6 -->
<svg xmlns="http://www.w3.org/2000/svg" xml:space="preserve" width="4096px" height="4096px" version="1.1" shape-rendering="geometricPrecision" text-rendering="geometricPrecision" image-rendering="optimizeQuality" fill-rule="evenodd" clip-rule="evenodd"
viewBox="0 0 4096 4096"
 xmlns:xlink="http://www.w3.org/1999/xlink">
 <g id="Слой_x0020_1">
  <metadata id="CorelCorpID_0Corel-Layer"/>
  <path fill="black" d="M1057 3818l0 -571c-86,38 -173,86 -258,129 -44,22 -84,42 -129,64 -44,22 -107,38 -109,90 -1,56 59,70 102,91l394 197zm-338 -3080l21 2 566 0 0 -566 0 -21 -587 585zm2449 3105l238 0c153,0 258,-110 258,-263l0 -95c0,-153 -106,-263 -258,-263l-238 0 0 621zm-1986 0l1861 0 0 -248 -1861 0 0 248zm0 -373l1861 0 0 -248 -1861 0 0 248zm248 -2681c0,48 -22,75 -70,75l-675 0 0 1663c0,67 38,75 90,75 18,0 54,-44 67,-57 58,-58 423,-417 436,-440 -111,0 -237,24 -222,-74 8,-49 51,-50 101,-50l219 0c36,0 33,-2 52,-22 43,-46 208,-202 222,-226 -161,-1 -322,0 -483,0 -40,0 -78,6 -98,-22 -21,-27 -14,-70 7,-89 45,-37 661,9 707,-18 6,-4 230,-227 239,-244l-830 0c-58,0 -114,12 -132,-37 -22,-62 23,-87 77,-87l834 0c50,0 117,4 164,0 27,-2 35,-19 50,-34 15,-15 27,-27 42,-42 31,-31 153,-146 168,-172 -61,0 -648,4 -675,-2 -35,-8 -57,-53 -36,-92 18,-34 57,-30 103,-30l681 0c72,0 55,0 94,-40 24,-24 45,-45 69,-69 28,-29 121,-114 136,-139l-930 0c-60,0 -134,14 -155,-34 -11,-27 -4,-56 10,-72 17,-19 44,-19 75,-19l1118 0c23,-3 80,-68 100,-88 32,-33 61,-62 94,-94 17,-17 30,-30 47,-47 32,-32 42,-29 42,-68 0,-51 -25,-75 -75,-75l-1663 0 0 670zm1655 263c32,-12 62,5 74,24 14,25 9,65 9,96l0 1464c0,94 -39,90 -125,90l-1464 0c-37,0 -64,1 -82,-28 -38,-62 57,-133 115,-183 35,-29 71,-70 104,-104l1153 -1156c31,-31 179,-189 216,-203zm-2027 2046l0 -124 124 0 0 124 124 0 0 -124 124 0 0 124 124 0 0 -124 124 0 0 124 124 0 0 -124 124 0 0 124 124 0 0 -124 125 0 0 124 124 0 0 -124 124 0 0 124 124 0 0 -124 124 0 0 124 124 0 0 -124 124 0 0 124 124 0 0 -124 125 0 0 124c61,0 122,0 183,0 226,0 189,39 189,-372l-124 0 0 -124 124 0 0 -125 -124 0 0 -124 124 0 0 -124 -124 0 0 -124 124 0 0 -124 -124 0 0 -124 124 0 0 -124 -124 0 0 -124 124 0 0 -125 -124 0 0 -124 124 0 0 -124 -124 0 0 -124 124 0 0 -124 -124 0 0 -124 124 0 0 -124 -124 0 0 -124 124 0c0,-95 5,-359 0,-432 -4,-50 -53,-100 -121,-32 -939,940 -1881,1886 -2823,2823 -69,68 -23,119 25,123 54,4 355,0 437,0z"/>
 </g>
</svg>
